# xmcd CD database file
#
# Track frame offsets:
#	150
#	16640
#	33787
#	50192
#	66425
#	84310
#	104135
#	123787
#	139730
#	162350
#	180087
#	198965
#	214932
#	232515
#
# Disc length: 3394 seconds
#
# Revision: 0
# Processed by: cddbd v1.5PL3 Copyright (c) Steve Scherf et al.
# Submitted via: CDex 1.50
#
DISCID=b00d400e
DTITLE=石田ひかり - Lamination
DYEAR=1989
DGENRE=JPop
TTITLE0=光のシーズン
TTITLE1=エメラルドの砂
TTITLE2=恋は確率51％
TTITLE3=春風のWING
TTITLE4=二人の関係
TTITLE5=少女・熱風・天然色
TTITLE6=く・ち・び・る 2
TTITLE7=恋人達のニュアンス
TTITLE8=悲しげだね
TTITLE9=微風
TTITLE10=恋なのにね
TTITLE11=PIKA☆FOREVER
TTITLE12=卒業写真
TTITLE13=L'Elisire d'Amore
EXTD=YEAR: 1989/04/21
EXTT0=
EXTT1=
EXTT2=
EXTT3=
EXTT4=
EXTT5=
EXTT6=
EXTT7=
EXTT8=
EXTT9=
EXTT10=
EXTT11=
EXTT12=
EXTT13=
PLAYORDER=
